<svg width="37" height="37" viewBox="0 0 37 37" fill="none" xmlns="http://www.w3.org/2000/svg">
<path fill-rule="evenodd" clip-rule="evenodd" d="M26.9792 4.23926C27.6178 4.23926 28.1355 4.75693 28.1355 5.39551V8.86426H31.6042C32.2428 8.86426 32.7605 9.38193 32.7605 10.0205C32.7605 10.6591 32.2428 11.1768 31.6042 11.1768H28.1355V14.6455C28.1355 15.2841 27.6178 15.8018 26.9792 15.8018C26.3407 15.8018 25.823 15.2841 25.823 14.6455V11.1768H22.3542C21.7157 11.1768 21.198 10.6591 21.198 10.0205C21.198 9.38193 21.7157 8.86426 22.3542 8.86426H25.823V5.39551C25.823 4.75693 26.3407 4.23926 26.9792 4.23926Z" fill="#1C274C"/>
<path d="M3.08325 10.0205C3.08325 6.75014 3.08325 5.11496 4.09923 4.09898C5.1152 3.08301 6.75038 3.08301 10.0208 3.08301C13.2911 3.08301 14.9263 3.08301 15.9423 4.09898C16.9583 5.11496 16.9583 6.75014 16.9583 10.0205C16.9583 13.2909 16.9583 14.9261 15.9423 15.942C14.9263 16.958 13.2911 16.958 10.0208 16.958C6.75038 16.958 5.1152 16.958 4.09923 15.942C3.08325 14.9261 3.08325 13.2909 3.08325 10.0205Z" fill="#1C274C"/>
<path d="M20.0417 26.9795C20.0417 23.7092 20.0417 22.0739 21.0577 21.058C22.0737 20.042 23.7089 20.042 26.9792 20.042C30.2496 20.042 31.8848 20.042 32.9008 21.058C33.9167 22.0739 33.9167 23.7092 33.9167 26.9795C33.9167 30.2498 33.9167 31.8851 32.9008 32.901C31.8848 33.917 30.2496 33.917 26.9792 33.917C23.7089 33.917 22.0737 33.917 21.0577 32.901C20.0417 31.8851 20.0417 30.2498 20.0417 26.9795Z" fill="#1C274C"/>
<path d="M3.08325 26.9795C3.08325 23.7092 3.08325 22.0739 4.09923 21.058C5.1152 20.042 6.75038 20.042 10.0208 20.042C13.2911 20.042 14.9263 20.042 15.9423 21.058C16.9583 22.0739 16.9583 23.7092 16.9583 26.9795C16.9583 30.2498 16.9583 31.8851 15.9423 32.901C14.9263 33.917 13.2911 33.917 10.0208 33.917C6.75038 33.917 5.1152 33.917 4.09923 32.901C3.08325 31.8851 3.08325 30.2498 3.08325 26.9795Z" fill="#1C274C"/>
</svg>
